<svg width="30" height="18" viewBox="0 0 30 18" fill="none" xmlns="http://www.w3.org/2000/svg">
<path fill-rule="evenodd" clip-rule="evenodd" d="M26.703 12.4471C26.703 12.4471 29.1285 14.8426 29.7285 15.9511C29.7402 15.9671 29.7493 15.9848 29.7555 16.0036C30 16.4131 30.06 16.7341 29.94 16.9711C29.7375 17.3626 29.052 17.5591 28.8195 17.5756H24.5325C24.234 17.5756 23.613 17.4976 22.857 16.9756C22.2795 16.5721 21.705 15.9076 21.1485 15.2581C20.3175 14.2936 19.599 13.4566 18.8715 13.4566C18.7796 13.4564 18.6884 13.4716 18.6015 13.5016C18.051 13.6756 17.352 14.4601 17.352 16.5496C17.352 17.2036 16.836 17.5756 16.4745 17.5756H14.511C13.842 17.5756 10.359 17.3416 7.27051 14.0851C3.48601 10.0981 0.087013 2.10006 0.054013 2.02956C-0.157487 1.51206 0.286513 1.23006 0.766513 1.23006H5.09551C5.67601 1.23006 5.86501 1.58106 5.99701 1.89606C6.15001 2.25756 6.71701 3.70356 7.64701 5.32806C9.15301 7.97106 10.0785 9.04656 10.818 9.04656C10.9569 9.04697 11.0935 9.01075 11.214 8.94156C12.18 8.41056 12 4.96056 11.955 4.24956C11.955 4.11156 11.9535 2.70906 11.4585 2.03106C11.1045 1.54506 10.5015 1.35606 10.137 1.28706C10.2345 1.14606 10.4415 0.93006 10.707 0.80256C11.3685 0.47256 12.564 0.424561 13.7505 0.424561H14.409C15.696 0.442561 16.029 0.52506 16.497 0.64356C17.439 0.86856 17.457 1.47906 17.3745 3.55806C17.3505 4.15206 17.325 4.82106 17.325 5.60856C17.325 5.77656 17.3175 5.96406 17.3175 6.15456C17.289 7.22106 17.2515 8.42256 18.0045 8.91606C18.1022 8.9769 18.2149 9.00912 18.33 9.00906C18.591 9.00906 19.3725 9.00906 21.492 5.37156C22.422 3.76506 23.142 1.87056 23.1915 1.72806C23.2335 1.64856 23.3595 1.42506 23.5125 1.33506C23.6214 1.27715 23.7433 1.24823 23.8665 1.25106H28.959C29.514 1.25106 29.8905 1.33506 29.964 1.54506C30.087 1.88556 29.94 2.92506 27.615 6.06906C27.2235 6.59256 26.88 7.04556 26.5785 7.44156C24.471 10.2076 24.471 10.3471 26.703 12.4471V12.4471Z" fill="#EC1B2E"/>
</svg>
