<svg width="30" height="22" viewBox="0 0 30 22" fill="none" xmlns="http://www.w3.org/2000/svg">
<path d="M29.375 4.13372C29.2051 3.52776 28.8742 2.97915 28.4175 2.54622C27.9478 2.09998 27.3722 1.78077 26.745 1.61872C24.3975 0.999973 14.9925 0.999973 14.9925 0.999973C11.0716 0.955364 7.15176 1.15157 3.25498 1.58747C2.62772 1.76149 2.05318 2.08783 1.58248 2.53747C1.11998 2.98247 0.784978 3.53122 0.609978 4.13247C0.189594 6.39715 -0.014657 8.69665 -2.1978e-05 11C-0.015022 13.3012 0.188728 15.6 0.609978 17.8675C0.781228 18.4662 1.11498 19.0125 1.57873 19.4537C2.04248 19.895 2.61998 20.2137 3.25498 20.3825C5.63373 21 14.9925 21 14.9925 21C18.9183 21.0446 22.8432 20.8484 26.745 20.4125C27.3722 20.2504 27.9478 19.9312 28.4175 19.485C28.8741 19.0521 29.2046 18.5034 29.3737 17.8975C29.8051 15.6337 30.0148 13.3332 30 11.0287C30.0324 8.71448 29.823 6.40318 29.375 4.13247V4.13372ZM12.0025 15.28V6.72122L19.8275 11.0012L12.0025 15.28Z" fill="#333333"/>
</svg>
